<?xml version="1.0" standalone="no"?>
<!DOCTYPE svg PUBLIC "-//W3C//DTD SVG 20010904//EN"
 "http://www.w3.org/TR/2001/REC-SVG-20010904/DTD/svg10.dtd">
<svg version="1.0" xmlns="http://www.w3.org/2000/svg"
 width="2052.000000pt" height="2048.000000pt" viewBox="0 0 2052.000000 2048.000000"
 preserveAspectRatio="xMidYMid meet">

<g transform="translate(0.000000,2048.000000) scale(0.100000,-0.100000)"
fill="#000000" stroke="none">
<path d="M9940 19050 c-1908 -69 -3721 -745 -5211 -1946 -248 -199 -430 -364
-700 -633 -269 -270 -434 -452 -633 -700 -1481 -1838 -2156 -4159 -1896 -6514
155 -1396 642 -2730 1425 -3902 606 -908 1378 -1699 2270 -2326 1064 -749
2301 -1259 3570 -1473 482 -81 831 -113 1345 -122 1803 -33 3527 470 5025
1467 516 343 939 691 1375 1129 1431 1438 2320 3314 2519 5320 33 332 42 525
42 890 0 365 -9 570 -41 895 -172 1726 -856 3365 -1966 4711 -344 417 -753
828 -1173 1178 -423 353 -915 687 -1413 959 -1374 753 -2951 1124 -4538 1067z
m468 -7115 c355 -20 741 -193 1017 -457 271 -259 434 -555 507 -920 30 -153
33 -471 4 -623 -119 -643 -606 -1172 -1231 -1335 -183 -48 -246 -55 -455 -54
-171 0 -211 4 -321 27 -737 155 -1275 743 -1360 1487 -16 145 -6 396 21 525
124 587 542 1066 1101 1263 174 61 459 107 594 95 17 -1 72 -5 123 -8z m-2973
-2327 c4 -18 25 -95 47 -171 253 -885 931 -1607 1803 -1920 344 -124 669 -174
1055 -164 355 10 606 58 945 183 264 97 603 297 830 487 119 100 303 289 398
407 254 317 456 724 551 1111 l23 94 2271 3 2272 2 -5 -42 c-37 -309 -49 -405
-71 -532 -131 -777 -365 -1483 -718 -2171 -679 -1319 -1733 -2405 -3038 -3129
-952 -527 -2025 -837 -3137 -907 -246 -15 -901 -6 -1116 15 -892 90 -1667 295
-2437 647 -1044 476 -2002 1226 -2721 2132 -867 1089 -1404 2377 -1567 3752
-11 94 -20 185 -20 203 l0 32 2314 0 2314 0 7 -32z"/>
</g>
</svg>
